<svg width="17" height="17" viewBox="0 0 17 17" fill="none" xmlns="http://www.w3.org/2000/svg">
<path d="M14.1124 3.38693H9.59648C9.28789 3.38693 9.03198 3.13102 9.03198 2.82243C9.03198 2.51384 9.28789 2.25793 9.59648 2.25793H14.1124C14.421 2.25793 14.6769 2.51384 14.6769 2.82243C14.6769 3.13102 14.421 3.38693 14.1124 3.38693Z" fill="#F9B233"/>
<path d="M11.8542 5.64462H9.59623C9.28764 5.64462 9.03174 5.38871 9.03174 5.08012C9.03174 4.77153 9.28764 4.51562 9.59623 4.51562H11.8542C12.1628 4.51562 12.4187 4.77153 12.4187 5.08012C12.4187 5.38871 12.1628 5.64462 11.8542 5.64462Z" fill="#F9B233"/>
<path d="M7.71478 15.4296C3.46224 15.4296 0 11.9673 0 7.71478C0 3.46224 3.46224 0 7.71478 0C8.02337 0 8.27927 0.255905 8.27927 0.564496C8.27927 0.873087 8.02337 1.12899 7.71478 1.12899C4.07942 1.12899 1.12899 4.08695 1.12899 7.71478C1.12899 11.3426 4.07942 14.3006 7.71478 14.3006C11.3501 14.3006 14.3006 11.3426 14.3006 7.71478C14.3006 7.40618 14.5565 7.15028 14.8651 7.15028C15.1736 7.15028 15.4296 7.40618 15.4296 7.71478C15.4296 11.9673 11.9673 15.4296 7.71478 15.4296Z" fill="#F9B233"/>
<path d="M15.618 16.1822C15.475 16.1822 15.332 16.1296 15.2191 16.0167L13.7138 14.5113C13.4955 14.2931 13.4955 13.9318 13.7138 13.7135C13.932 13.4952 14.2933 13.4952 14.5116 13.7135L16.0169 15.2188C16.2352 15.4371 16.2352 15.7984 16.0169 16.0167C15.904 16.1296 15.761 16.1822 15.618 16.1822Z" fill="#F9B233"/>
</svg>
