<svg width="107" height="84" viewBox="0 0 107 84" fill="none" xmlns="http://www.w3.org/2000/svg">
<circle cx="53.5" cy="13.5" r="10.5" fill="#F9B233"/>
<path d="M54.4875 0C47.0424 0 41 6.08758 41 13.5884C41 21.0891 47.0424 27.1767 54.4875 27.1767C61.9326 27.1767 67.975 21.0891 67.975 13.5884C67.975 6.08758 61.9326 0 54.4875 0ZM54.9326 20.3825C54.6898 20.4641 54.2717 20.4641 54.0289 20.3825C51.9249 19.6623 47.2042 16.6321 47.2042 11.4957C47.2042 9.22649 49.0116 7.39206 51.2505 7.39206C52.5723 7.39206 53.7457 8.03071 54.4875 9.03625C55.2158 8.0443 56.4027 7.39206 57.7245 7.39206C59.9634 7.39206 61.7707 9.22649 61.7707 11.4957C61.7707 16.6321 57.0501 19.6623 54.9326 20.3825Z" fill="#292D32"/>
</svg>
