<?xml version="1.0" encoding="UTF-8"?><svg id="a" xmlns="http://www.w3.org/2000/svg" xmlns:xlink="http://www.w3.org/1999/xlink" viewBox="0 0 320 568"><defs><style>.c{fill:#026734;}.d{stroke-width:.75px;}.d,.e,.f{fill:none;stroke:#1d1d1b;stroke-miterlimit:10;}.g{fill:#00953f;}.f{isolation:isolate;opacity:.93;stroke-width:.5px;}.h{fill-rule:evenodd;}.h,.i{fill:#1d1d1b;}.j{fill:url(#b);}.k{fill:#008d39;}</style><linearGradient id="b" x1="160" y1="568" x2="160" y2="0" gradientTransform="matrix(1, 0, 0, 1, 0, 0)" gradientUnits="userSpaceOnUse"><stop offset="0" stop-color="#f8b032"/><stop offset=".49" stop-color="#8fcfda"/><stop offset="1" stop-color="#39bdee"/></linearGradient></defs><path class="h" d="M188.18,305.02c0,14.35-11.6,25.98-25.9,25.98s-25.9-11.63-25.9-25.98,11.6-25.98,25.9-25.98,25.9,11.63,25.9,25.98Zm-20.73-.4c0,3.09-2.49,5.59-5.57,5.59s-5.57-2.5-5.57-5.59,2.49-5.59,5.57-5.59,5.57,2.5,5.57,5.59Z"/><path class="f" d="M162.28,350.48c25.03,0,45.32-20.35,45.32-45.45s-20.29-45.46-45.32-45.46-45.32,20.35-45.32,45.46,20.29,45.45,45.32,45.45Z"/><path class="f" d="M162.28,340.48c19.81,0,35.87-16.11,35.87-35.98s-16.06-35.98-35.87-35.98-35.87,16.11-35.87,35.98,16.06,35.98,35.87,35.98Z"/><path class="f" d="M162.28,359.05c29.75,0,53.86-24.19,53.86-54.02s-24.11-54.03-53.86-54.03-53.86,24.19-53.86,54.03,24.11,54.02,53.86,54.02Z"/><path class="f" d="M162.28,367.77c34.54,0,62.55-28.09,62.55-62.74s-28.01-62.74-62.55-62.74-62.55,28.09-62.55,62.74,28,62.74,62.55,62.74Z"/><path class="f" d="M162.28,374.72c38.66,0,70-31.44,70-70.22s-31.34-70.22-70-70.22-70,31.44-70,70.22,31.34,70.22,70,70.22Z"/><path class="j" d="M0,0V568H320V0H0ZM162.73,385.23c-44,0-80-36-78.5-80.5,0-43.58,35.29-78.81,78.53-78.81s80.47,35.23,80.47,78.81c2.5,44.5-35,80.5-80.5,80.5Z"/><path class="i" d="M99.7,297.1l5.03-8.04,1.53-.72,3.24-5.86-7.26-4.5-3.61,5.42,.02,1.91-5.19,7.77,6.23,4.03Z"/><path class="d" d="M110.19,287.91l.76-1.29-2.62-2.61-1.26,2.04,3.13,1.85Z"/><path class="i" d="M94.15,293.5l-3.05,4.4,.62,.47,4.21,3.1,2.95-4.89-4.74-3.08Z"/><path class="i" d="M95.78,301.1c-.31,.57-2.95,7.81-2.95,7.81l-4.35,38.18-4.37-.51,4.72-38.94c.17-5.32,3.03-9.99,3.03-9.99l3.92,3.47v-.02Z"/><path class="i" d="M95.45,358.43c.7-6.15-3.54-11.68-9.46-12.36-5.92-.68-11.29,3.76-11.99,9.9-.7,6.15,3.54,11.68,9.46,12.36,5.92,.68,11.29-3.75,11.99-9.9Z"/><path class="i" d="M79.78,366.74s3.98,1.83,7.59,.88l-1.4,12.37-7.59-.88,1.4-12.37Z"/><path class="g" d="M183.75,220.22l-13.11,5.53-11.9,.54s.88-18.84-14.02-36.95c0,0,12.19,2.19,25.14,15.66,0,0,10.91,9.49,13.88,15.19v.02Z"/><path class="k" d="M199.58,216.14s22.46-37.3,29.89-37.51c0,0-34.22,8.89-39.53,15.95,0,0,7.8,18.86,6.32,21.89l3.32-.33Z"/><path class="k" d="M189.94,194.58l-7.53-13.7s9.9,.12,18.06-28.16c0,0,6.3,26.8,.7,34.81,0,0-11.3,5.94-11.24,7.06v-.02Z"/><path class="c" d="M183.75,220.22l-13.11,5.53s22.26,1.53,36.08,12.98c0,0,3.06-15.8,27-22.92,0,0-22.52-1.05-37.45,.64-6.18,.7-8.94,2.52-12.5,3.75l-13.88-15.19c3.5-5.63-5.02-47-5.02-47,0,0,28.92,30.15,31.4,58.45"/><path class="e" d="M170.65,225.75l13.11-5.53v-.02c-2.97-5.7-13.88-15.19-13.88-15.19-12.95-13.47-25.14-15.66-25.14-15.66,14.89,18.1,14.02,36.95,14.02,36.95l11.9-.54Zm0,0s22.26,1.53,36.08,12.98c0,0,3.06-15.8,27-22.92,0,0-22.52-1.05-37.45,.64m-6.34-21.87c5.31-7.06,39.53-15.95,39.53-15.95-7.43,.21-29.89,37.51-29.89,37.51l-3.32,.33c1.48-3.03-6.32-21.89-6.32-21.89Zm0,0l-7.53-13.7s9.9,.12,18.06-28.16c0,0,6.3,26.8,.7,34.81,0,0-11.3,5.94-11.24,7.06v-.02Zm6.34,21.87c-6.18,.7-8.94,2.52-12.5,3.75l-13.88-15.19c3.5-5.63-5.02-47-5.02-47,0,0,28.92,30.15,31.4,58.45Z"/><path class="e" d="M162.73,385.23c45.5,0,83-36,80.5-80.5,0-43.58-37.23-78.81-80.47-78.81s-78.53,35.23-78.53,78.81c-1.5,44.5,34.5,80.5,78.5,80.5Z"/></svg>