<svg width="193" height="252" viewBox="0 0 193 252" fill="none" xmlns="http://www.w3.org/2000/svg">
<path fill-rule="evenodd" clip-rule="evenodd" d="M122.453 154.295C122.453 168.645 110.855 180.278 96.5491 180.278C82.243 180.278 70.6455 168.645 70.6455 154.295C70.6455 139.944 82.243 128.311 96.5491 128.311C110.855 128.311 122.453 139.944 122.453 154.295ZM101.721 153.895C101.721 156.981 99.2271 159.483 96.1507 159.483C93.0744 159.483 90.5805 156.981 90.5805 153.895C90.5805 150.81 93.0744 148.308 96.1507 148.308C99.2271 148.308 101.721 150.81 101.721 153.895Z" fill="#1D1D1B"/>
<path opacity="0.93" d="M96.5489 199.749C121.576 199.749 141.864 179.398 141.864 154.294C141.864 129.19 121.576 108.839 96.5489 108.839C71.5218 108.839 51.2334 129.19 51.2334 154.294C51.2334 179.398 71.5218 199.749 96.5489 199.749Z" stroke="#1D1D1B" stroke-width="0.5" stroke-miterlimit="10"/>
<path opacity="0.93" d="M96.5486 189.751C116.36 189.751 132.42 173.641 132.42 153.769C132.42 133.897 116.36 117.788 96.5486 117.788C76.7374 117.788 60.6773 133.897 60.6773 153.769C60.6773 173.641 76.7374 189.751 96.5486 189.751Z" stroke="#1D1D1B" stroke-width="0.5" stroke-miterlimit="10"/>
<path opacity="0.93" d="M96.549 208.319C126.295 208.319 150.408 184.132 150.408 154.295C150.408 124.457 126.295 100.27 96.549 100.27C66.8033 100.27 42.6897 124.457 42.6897 154.295C42.6897 184.132 66.8033 208.319 96.549 208.319Z" stroke="#1D1D1B" stroke-width="0.5" stroke-miterlimit="10"/>
<path opacity="0.93" d="M96.5483 217.037C131.093 217.037 159.098 188.946 159.098 154.295C159.098 119.643 131.093 91.5525 96.5483 91.5525C62.0031 91.5525 33.9987 119.643 33.9987 154.295C33.9987 188.946 62.0031 217.037 96.5483 217.037Z" stroke="#1D1D1B" stroke-width="0.5" stroke-miterlimit="10"/>
<path opacity="0.93" d="M96.5487 223.99C135.211 223.99 166.553 192.551 166.553 153.77C166.553 114.988 135.211 83.5498 96.5487 83.5498C57.8863 83.5498 26.5442 114.988 26.5442 153.77C26.5442 192.551 57.8863 223.99 96.5487 223.99Z" stroke="#1D1D1B" stroke-width="0.5" stroke-miterlimit="10"/>
<path d="M96.9999 234.5C142.5 234.5 180 198.5 177.5 154C177.5 110.416 140.273 75.1897 97.0303 75.1897C53.7881 75.1897 18.4999 110.416 18.4999 154C17 198.5 53 234.5 96.9999 234.5Z" stroke="#1D1D1B" stroke-miterlimit="10"/>
<path d="M33.9755 146.375L39.0052 138.33L40.5394 137.609L43.7824 131.746L36.5195 127.246L32.9075 132.662L32.9269 134.571L27.7419 142.343L33.9755 146.375Z" fill="#1D1D1B"/>
<path d="M44.4622 137.181L45.2195 135.896L42.5979 133.286L41.3356 135.331L44.4622 137.181Z" stroke="#1D1D1B" stroke-width="0.75" stroke-miterlimit="10"/>
<path d="M28.4217 142.771L25.3728 147.174L25.9942 147.641L30.2083 150.738L33.1601 145.849L28.4217 142.771Z" fill="#1D1D1B"/>
<path d="M30.053 150.369C29.7423 150.934 27.1012 158.18 27.1012 158.18L22.7512 196.36L18.3818 195.853L23.1008 156.914C23.2755 151.596 26.1302 146.921 26.1302 146.921L30.053 150.388V150.369Z" fill="#1D1D1B"/>
<path d="M29.7213 207.699C30.4205 201.553 26.1844 196.021 20.2596 195.342C14.3349 194.664 8.96518 199.097 8.26599 205.243C7.5668 211.389 11.8029 216.921 17.7277 217.599C23.6524 218.277 29.0221 213.845 29.7213 207.699Z" fill="#1D1D1B"/>
<path d="M14.0514 216.014C14.0514 216.014 18.0324 217.845 21.6445 216.89L20.2463 229.26L12.6532 228.383L14.0514 216.014Z" fill="#1D1D1B"/>
<path d="M118.026 69.4881L104.92 75.0184L93.0199 75.5617C93.0199 75.5617 93.8949 56.72 79 38.6157C79 38.6157 91.1921 40.8084 104.142 54.2751C104.142 54.2751 115.051 63.7638 118.026 69.4687V69.4881Z" fill="#009540"/>
<path d="M133.855 65.4134C133.855 65.4134 156.314 28.1181 163.742 27.9047C163.742 27.9047 129.518 36.7919 124.21 43.8551C124.21 43.8551 132.007 62.7162 130.53 65.7433L133.855 65.4134Z" fill="#008D36"/>
<path d="M124.21 43.8551L116.685 30.1558C116.685 30.1558 126.582 30.2722 134.749 2C134.749 2 141.049 28.7975 135.449 36.8115C135.449 36.8115 124.151 42.7493 124.21 43.8747L124.21 43.8551Z" fill="#008D36"/>
<path d="M118.026 69.4881L104.92 75.0184C104.92 75.0184 127.175 76.5514 141 88C141 88 144.063 72.2048 168 65.0834C168 65.0834 145.483 64.0356 130.549 65.7237C124.365 66.4223 121.604 68.2463 118.046 69.4688L104.162 54.2751C107.662 48.6479 99.145 7.27765 99.145 7.27765C99.145 7.27765 128.06 37.4321 130.549 65.7237" fill="#006633"/>
<path d="M104.92 75.0184L118.026 69.4881V69.4687C115.051 63.7638 104.142 54.2751 104.142 54.2751C91.1921 40.8084 79 38.6157 79 38.6157C93.8949 56.72 93.0199 75.5617 93.0199 75.5617L104.92 75.0184ZM104.92 75.0184C104.92 75.0184 127.175 76.5514 141 88C141 88 144.063 72.2048 168 65.0834C168 65.0834 145.483 64.0356 130.549 65.7237M124.21 43.8551C129.518 36.7919 163.742 27.9047 163.742 27.9047C156.314 28.1181 133.855 65.4134 133.855 65.4134L130.53 65.7433C132.007 62.7162 124.21 43.8551 124.21 43.8551ZM124.21 43.8551L116.685 30.1558C116.685 30.1558 126.582 30.2722 134.749 2C134.749 2 141.049 28.7975 135.449 36.8115C135.449 36.8115 124.151 42.7493 124.21 43.8747L124.21 43.8551ZM130.549 65.7237C124.365 66.4223 121.604 68.2463 118.046 69.4688L104.162 54.2751C107.662 48.6479 99.145 7.27765 99.145 7.27765C99.145 7.27765 128.06 37.4321 130.549 65.7237Z" stroke="#1D1D1B" stroke-miterlimit="10"/>
</svg>
