<?xml version="1.0" encoding="UTF-8"?><svg id="a" xmlns="http://www.w3.org/2000/svg" xmlns:xlink="http://www.w3.org/1999/xlink" viewBox="0 0 3380.93 3894.59"><defs><style>.d{fill:url(#c);}.e{fill:url(#b);}</style><linearGradient id="b" x1="1524.64" y1="393.57" x2="1524.64" y2="5135.7" gradientTransform="translate(.04 -1241.17)" gradientUnits="userSpaceOnUse"><stop offset="0" stop-color="#ffa902"/><stop offset=".93" stop-color="#ffb300" stop-opacity=".28"/><stop offset="1" stop-color="#ffb600" stop-opacity=".08"/><stop offset="1" stop-color="#a97a01" stop-opacity="0"/></linearGradient><linearGradient id="c" x1="1847.18" y1="304.57" x2="1847.18" y2="5135.88" gradientTransform="translate(.04 -1241.17)" gradientUnits="userSpaceOnUse"><stop offset="0" stop-color="#ffa800"/><stop offset=".94" stop-color="#ffb600" stop-opacity=".54"/><stop offset="1" stop-color="#c89c00" stop-opacity="0"/></linearGradient></defs><path class="e" d="M767.16,264.96C550.24-115.37,0-.9,27.66,340.43L0,3894.59H3049.37l-35.8-3172.38c-43.96-568.86-280.62-825.66-536.03-568.86-255.41,256.8-275.16,244.46-631.44,0-238.21-163.84-266.94-179.47-488.22,0-231.67,188.25-344.2,345.51-590.71,111.6h0Z"/><path class="d" d="M1128.26,167.3C887.58-161.14,313.5,44.8,313.5,348.83V3894.59H3380.93l-35.53-3277.9c-43.03-287.59-65.67-614.85-310.89-558.97-41.45,9.44-80.57,28.43-115.19,55-290.4,222.84-265.15,367.46-490.83,221.3l-146.27-177.97c-173.21-162.89-393.6-190.21-571.46-3.71-201.4,211.16-324.6,463.01-582.5,14.98h0Z"/></svg>