<svg width="108" height="70" viewBox="0 0 108 70" fill="none" xmlns="http://www.w3.org/2000/svg">
<circle cx="54.485" cy="35.485" r="13.485" fill="#292D32"/>
<path d="M60.1122 30.3869H55.5962C55.2876 30.3869 55.0317 30.131 55.0317 29.8224C55.0317 29.5138 55.2876 29.2579 55.5962 29.2579H60.1122C60.4208 29.2579 60.6767 29.5138 60.6767 29.8224C60.6767 30.131 60.4208 30.3869 60.1122 30.3869Z" fill="#F9B233"/>
<path d="M57.8542 32.6446H55.5962C55.2876 32.6446 55.0317 32.3887 55.0317 32.0801C55.0317 31.7715 55.2876 31.5156 55.5962 31.5156H57.8542C58.1628 31.5156 58.4187 31.7715 58.4187 32.0801C58.4187 32.3887 58.1628 32.6446 57.8542 32.6446Z" fill="#F9B233"/>
<path d="M53.7148 42.4296C49.4622 42.4296 46 38.9673 46 34.7148C46 30.4622 49.4622 27 53.7148 27C54.0234 27 54.2793 27.2559 54.2793 27.5645C54.2793 27.8731 54.0234 28.129 53.7148 28.129C50.0794 28.129 47.129 31.0869 47.129 34.7148C47.129 38.3426 50.0794 41.3006 53.7148 41.3006C57.3501 41.3006 60.3006 38.3426 60.3006 34.7148C60.3006 34.4062 60.5565 34.1503 60.8651 34.1503C61.1736 34.1503 61.4296 34.4062 61.4296 34.7148C61.4296 38.9673 57.9673 42.4296 53.7148 42.4296Z" fill="#F9B233"/>
<path d="M61.6182 43.1822C61.4752 43.1822 61.3322 43.1296 61.2193 43.0167L59.714 41.5113C59.4957 41.2931 59.4957 40.9318 59.714 40.7135C59.9323 40.4952 60.2935 40.4952 60.5118 40.7135L62.0171 42.2188C62.2354 42.4371 62.2354 42.7984 62.0171 43.0167C61.9042 43.1296 61.7612 43.1822 61.6182 43.1822Z" fill="#F9B233"/>
</svg>
