<svg width="107" height="70" viewBox="0 0 107 70" fill="none" xmlns="http://www.w3.org/2000/svg">
<circle cx="53.485" cy="35.485" r="13.485" fill="#292D32"/>
<path d="M45.8601 33.0432L52.7091 26.0432C52.7917 25.9599 52.89 25.8938 52.9982 25.8487C53.1065 25.8036 53.2226 25.7804 53.3399 25.7804C53.4571 25.7804 53.5732 25.8036 53.6815 25.8487C53.7897 25.8938 53.888 25.9599 53.9706 26.0432L60.8196 33.0521C60.9854 33.2192 61.1162 33.4175 61.2047 33.6356C61.2931 33.8537 61.3374 34.0871 61.3349 34.3224V41.7667C61.3355 42.2214 61.1618 42.6591 60.8495 42.9896C60.5372 43.3202 60.11 43.5183 59.6559 43.5433H47.0238C46.5697 43.5183 46.1426 43.3202 45.8302 42.9896C45.5179 42.6591 45.3442 42.2214 45.3449 41.7667V34.3224C45.3441 33.8453 45.5289 33.3866 45.8601 33.0432ZM55.1165 41.7667V36.4367H51.5632V41.7667H55.1165ZM47.1215 41.7667H49.7865V35.5483C49.7865 35.3127 49.8801 35.0868 50.0467 34.9202C50.2133 34.7536 50.4393 34.66 50.6749 34.66H56.0049C56.2405 34.66 56.4664 34.7536 56.633 34.9202C56.7996 35.0868 56.8932 35.3127 56.8932 35.5483V41.7667H59.5582V34.2869L53.3399 27.9353L47.1215 34.3224V41.7667Z" fill="#F9B233"/>
</svg>
