<svg width="320" height="84" viewBox="0 0 320 84" fill="none" xmlns="http://www.w3.org/2000/svg">
<path fill-rule="evenodd" clip-rule="evenodd" d="M251.34 26.9915C246 21.0193 239.721 14 231.71 14H-96C-101.523 14 -106 18.4772 -106 24V74C-106 79.5229 -101.523 84 -96 84H416C421.523 84 426 79.5229 426 74V24C426 18.4772 421.523 14 416 14H302.29C294.279 14 288 21.0193 282.66 26.9915C278.815 31.2927 273.224 34 267 34C260.776 34 255.185 31.2927 251.34 26.9915Z" fill="#DCDCDC" fill-opacity="0.75"/>
<circle cx="53.485" cy="49.485" r="13.485" fill="#292D32"/>
<path d="M45.8601 47.0432L52.7091 40.0432C52.7917 39.9599 52.89 39.8938 52.9982 39.8487C53.1065 39.8036 53.2226 39.7804 53.3399 39.7804C53.4571 39.7804 53.5732 39.8036 53.6815 39.8487C53.7897 39.8938 53.888 39.9599 53.9706 40.0432L60.8196 47.0521C60.9854 47.2192 61.1162 47.4175 61.2047 47.6356C61.2931 47.8537 61.3374 48.0871 61.3349 48.3224V55.7667C61.3355 56.2214 61.1618 56.6591 60.8495 56.9896C60.5372 57.3202 60.11 57.5183 59.6559 57.5433H47.0238C46.5697 57.5183 46.1426 57.3202 45.8302 56.9896C45.5179 56.6591 45.3442 56.2214 45.3449 55.7667V48.3224C45.3441 47.8453 45.5289 47.3866 45.8601 47.0432ZM55.1165 55.7667V50.4367H51.5632V55.7667H55.1165ZM47.1215 55.7667H49.7865V49.5483C49.7865 49.3127 49.8801 49.0868 50.0467 48.9202C50.2133 48.7536 50.4393 48.66 50.6749 48.66H56.0049C56.2405 48.66 56.4664 48.7536 56.633 48.9202C56.7996 49.0868 56.8932 49.3127 56.8932 49.5483V55.7667H59.5582V48.2869L53.3399 41.9353L47.1215 48.3224V55.7667Z" fill="#F9B233"/>
<circle cx="160.485" cy="49.485" r="13.485" fill="#292D32"/>
<path d="M166.112 44.3869H161.596C161.288 44.3869 161.032 44.131 161.032 43.8224C161.032 43.5138 161.288 43.2579 161.596 43.2579H166.112C166.421 43.2579 166.677 43.5138 166.677 43.8224C166.677 44.131 166.421 44.3869 166.112 44.3869Z" fill="#F9B233"/>
<path d="M163.854 46.6446H161.596C161.288 46.6446 161.032 46.3887 161.032 46.0801C161.032 45.7715 161.288 45.5156 161.596 45.5156H163.854C164.163 45.5156 164.419 45.7715 164.419 46.0801C164.419 46.3887 164.163 46.6446 163.854 46.6446Z" fill="#F9B233"/>
<path d="M159.715 56.4296C155.462 56.4296 152 52.9673 152 48.7148C152 44.4622 155.462 41 159.715 41C160.023 41 160.279 41.2559 160.279 41.5645C160.279 41.8731 160.023 42.129 159.715 42.129C156.079 42.129 153.129 45.0869 153.129 48.7148C153.129 52.3426 156.079 55.3006 159.715 55.3006C163.35 55.3006 166.301 52.3426 166.301 48.7148C166.301 48.4062 166.556 48.1503 166.865 48.1503C167.174 48.1503 167.43 48.4062 167.43 48.7148C167.43 52.9673 163.967 56.4296 159.715 56.4296Z" fill="#F9B233"/>
<path d="M167.618 57.1822C167.475 57.1822 167.332 57.1296 167.219 57.0167L165.714 55.5113C165.496 55.2931 165.496 54.9318 165.714 54.7135C165.932 54.4952 166.294 54.4952 166.512 54.7135L168.017 56.2188C168.235 56.4371 168.235 56.7984 168.017 57.0167C167.904 57.1296 167.761 57.1822 167.618 57.1822Z" fill="#F9B233"/>
<circle cx="266.5" cy="13.5" r="10.5" fill="#F9B233"/>
<path d="M267.487 0C260.042 0 254 6.08758 254 13.5884C254 21.0891 260.042 27.1767 267.487 27.1767C274.933 27.1767 280.975 21.0891 280.975 13.5884C280.975 6.08758 274.933 0 267.487 0ZM267.933 20.3825C267.69 20.4641 267.272 20.4641 267.029 20.3825C264.925 19.6623 260.204 16.6321 260.204 11.4957C260.204 9.22649 262.012 7.39206 264.25 7.39206C265.572 7.39206 266.746 8.03071 267.487 9.03625C268.216 8.0443 269.403 7.39206 270.724 7.39206C272.963 7.39206 274.771 9.22649 274.771 11.4957C274.771 16.6321 270.05 19.6623 267.933 20.3825Z" fill="#292D32"/>
</svg>
